<?xml version="1.0" encoding="iso-8859-1"?>
<!-- Generator: Adobe Illustrator 19.0.0, SVG Export Plug-In . SVG Version: 6.00 Build 0)  -->
<svg version="1.1" id="Capa_1" xmlns="http://www.w3.org/2000/svg" 
fill="lightgray"
width="30px" height="30px"
xmlns:xlink="http://www.w3.org/1999/xlink" x="0px" y="0px"
	 viewBox="0 0 512 512" style="enable-background:new 0 0 512 512;" xml:space="preserve">
	 
<g>
	<g>
		<path d="M60,95v232h310V95H60z M340,297H90V125h250V297z"/>
	</g>
</g>
<g>
	<g>
		<path d="M215,125.181l-75,38.043v96.047l75,37.5l75-37.5v-96.047L215,125.181z M215,158.819l41.112,20.854L215,200.229s
			l-41.112-20.556L215,158.819z M260,240.729l-45,22.5l-45-22.5V211.27l45,22.5l45-22.5V240.729z"/>
	</g>
</g>
<g>
	<g>
		<path d="M430,117V35H0v352h160v60h-25v30h160v-30h-25v-60h52v90h190V117H430z M240,447h-50v-60h50V447z M30,357V65h370v292H30z
			 M482,447H352v-60h78v-60h22v-30h-22v-30h22v-30h-22v-30h22v-30h-22v-30h52V447z"/>
	</g>
</g>
<g></g><g></g><g></g><g></g><g></g><g></g><g></g><g></g><g></g><g></g><g></g><g></g><g></g><g></g><g></g>
</svg>
