
<svg version="1.0" xmlns="http://www.w3.org/2000/svg"
 width="22.000000pt" height="22.000000pt" viewBox="0 0 512.000000 512.000000"
 preserveAspectRatio="xMidYMid meet">

<g transform="translate(0.000000,512.000000) scale(0.100000,-0.100000)"
fill="lightgray" stroke="none">
<path d="M975 4871 c-337 -79 -570 -238 -680 -465 -68 -140 -79 -199 -78 -411
4 -705 224 -1428 619 -2037 261 -403 619 -772 1024 -1055 621 -435 1387 -681
2135 -686 146 -1 193 2 250 17 331 87 544 350 631 777 22 107 15 241 -15 321
-44 114 -69 140 -386 391 -378 300 -412 325 -494 355 -88 32 -212 40 -305 18
-114 -27 -175 -67 -349 -230 l-159 -149 -52 13 c-385 97 -942 529 -1218 945
-95 143 -168 317 -184 435 l-6 49 154 164 c165 176 207 238 233 348 29 125 15
249 -42 365 -14 30 -148 209 -297 397 -286 361 -308 383 -424 428 -80 31 -245
36 -357 10z m304 -221 c47 -21 68 -45 303 -341 139 -175 267 -344 283 -376 26
-50 30 -66 29 -137 -1 -118 -19 -150 -204 -344 -207 -219 -195 -202 -193 -290
13 -431 467 -1034 1060 -1408 225 -142 575 -278 665 -259 21 5 87 60 212 176
215 201 253 224 366 223 55 0 88 -6 123 -22 26 -11 196 -137 377 -279 374
-293 372 -291 378 -423 7 -135 -58 -346 -147 -482 -83 -128 -193 -208 -333
-244 -52 -14 -99 -16 -268 -11 -218 6 -378 23 -580 63 -1359 268 -2455 1298
-2805 2639 -71 271 -104 502 -112 790 -5 175 -3 220 11 273 54 212 203 349
471 436 155 50 273 55 364 16z"/>
</g>
</svg>
